<svg width="1068.9" height="979.1" xmlns="http://www.w3.org/2000/svg">
 <style type="text/css">.st0{fill:#B53515;}</style>

 <g>
  <title>background</title>
  <rect fill="none" id="canvas_background" height="402" width="582" y="-1" x="-1"/>
 </g>
 <g>
  <title>Layer 1</title>
  <ellipse stroke="#000" ry="386.003094" rx="417.003312" id="svg_7" cy="491.550008" cx="534.449991" stroke-width="0" fill="#fff"/>
  <g id="svg_1">
   <path id="svg_2" d="m578.3,900.8c-49.9,3.1 -99,0.2 -147.7,-6.7c-29.2,-4.1 -57,-13.6 -84.2,-24.7c-24.5,-9.9 -49.6,-18.8 -73.1,-31.1c-40.8,-21.3 -73.3,-51.7 -98.1,-90.4c-12.2,-19.1 -26.3,-36.9 -38,-56.4c-20.2,-33.5 -36.5,-69.1 -44.8,-107.4c-8.9,-41.2 -10.9,-83.2 -4.9,-125.3c3.5,-24.9 6.9,-49.8 6.4,-75.1c-0.3,-16 4.4,-30.9 14.7,-43.2c17.8,-21.4 27.1,-46.5 33.2,-73c4.1,-17.7 12.1,-33 24.2,-46.4c12.6,-13.8 22.1,-30.1 33.9,-44.5c27.5,-33.5 61.7,-56.9 103.7,-68.7c20.3,-5.8 41.2,-7.8 62,-10.4c27.9,-3.5 55.6,-9.1 83.7,-11.1c40.1,-2.8 79.9,-9 120.1,-9.2c29.9,-0.1 60,-1.4 89.8,2.8c27,3.8 53.6,8.7 78.4,20.6c37.3,17.8 70,41.4 97.5,72.7c28.6,32.5 53.5,67.8 76.3,104.4c15.7,25.3 31.1,51 41.3,79.2c15.3,42.1 26.6,85.2 30,130.1c4.1,53.9 2.1,107.6 -7.9,160.8c-13.6,72.5 -50.8,130.2 -111.6,172.3c-25.9,17.9 -51.7,35.9 -80,50c-32.6,16.2 -67.2,24.2 -102.9,28.9c-29.6,3.9 -59.2,3.1 -88.8,1.8c-4.6,-0.1 -9.2,0 -13.2,0zm-18,-48.7c23.2,-0.1 44,-2.7 64.9,-5c38,-4.2 74.2,-14 108,-32.2c24.7,-13.3 47.8,-29.1 71.5,-44c5.6,-3.5 10.9,-7.7 15.9,-12.1c47.4,-42.4 78.4,-95.2 95.3,-156c14.2,-51.4 12.5,-103 -4.7,-153.6c-11.3,-33.4 -23.7,-66.5 -36,-99.6c-12.9,-34.7 -31.8,-65.9 -56.2,-93.8c-13.5,-15.5 -29.5,-28.5 -43.7,-43.2c-8.4,-8.7 -17.4,-16.5 -27.6,-23c-27.1,-17.1 -57.6,-25.2 -88,-33.4c-27.8,-7.4 -56.5,-11.5 -84.3,-19c-13.9,-3.7 -27.9,-6.9 -42.4,-5.6c-14.9,1.4 -29.9,3.1 -44.5,6.2c-37.6,7.9 -74,19.4 -109.5,34.1c-37.3,15.4 -73.1,33.4 -106.6,55.6c-41,27.2 -72.8,63.8 -99.9,104.4c-9.8,14.8 -18.7,30.4 -23.8,47.7c-3.9,13.2 -3.8,27 -6.2,40.5c-6.3,35.4 -4.4,70.4 5.9,104.8c5.1,17.1 12.2,33.7 13.3,51.6c2.1,33.1 10.9,64.6 21.7,95.7c6.5,18.9 14.9,36.8 29.5,51.1c10.1,9.9 20.8,19.2 31,29c35.1,33.8 76.8,55 124.5,63.7c34.8,6.4 69.3,13.6 103.4,22.9c29.6,8.1 59.7,13.8 88.5,13.2z" class="st0"/>
   <path id="svg_3" d="m561.3,802.2c-21.6,0.8 -47.2,-3.7 -72.4,-10.3c-37.7,-10 -75.7,-18.7 -114.1,-25.5c-38.6,-6.9 -71.9,-24.5 -99.5,-52.6c-4.4,-4.5 -8.9,-9.1 -13.8,-13c-16.9,-13.6 -26.9,-31.2 -33.4,-51.6c-7.8,-24.7 -14.2,-49.6 -16.1,-75.6c-1.3,-17.2 -5.6,-33.9 -11.5,-50c-12,-33.4 -13.9,-67.1 -7,-101.8c4.5,-22.5 8.5,-45.1 21.4,-64.5c26.9,-40.4 59.3,-75.1 101.9,-99.7c47,-27.1 96.3,-48.6 148.4,-63.8c20.4,-5.9 41.1,-10 62.2,-12.2c10.4,-1.1 20.7,0 30.7,2.8c30.2,8.5 61.3,12.9 91.5,21c22.8,6.1 45.8,12.1 66.7,23.6c10.8,5.9 19.5,14.5 28.1,23.1c15.7,15.6 32.7,29.9 46.4,47.5c15.9,20.6 28.3,43.2 37.5,67.5c11.7,31 22.9,62.2 33.8,93.5c18.9,54.3 16.2,108.2 -5.6,161c-14.2,34.3 -33.6,65.5 -60.4,91.6c-9.7,9.5 -20.9,17 -32.3,24.2c-18.8,11.7 -37.3,23.9 -56.8,34.4c-24.1,13 -49.9,20.6 -76.8,24.1c-21.4,2.8 -42.7,5.8 -68.9,6.3zm-28.2,-36.9c29.6,0.6 55.3,-2.2 81,-4.4c15.2,-1.3 30,-3.8 44.3,-9.5c29.2,-11.7 53,-31 75.1,-52.8c9.7,-9.6 17.6,-20.4 23.1,-33c13.3,-30.5 21.8,-62.5 31,-94.4c6.8,-23.4 11,-47 10.3,-71.4c-0.7,-22.2 -2.9,-44.2 -5.3,-66.2c-1.6,-15 -5.1,-29.5 -10.2,-43.7c-10.3,-28.5 -26.6,-53.6 -44.1,-78c-16,-22.3 -37,-37.3 -62.6,-46.9c-63.3,-23.8 -128.9,-34 -196.3,-34.5c-30.2,-0.3 -56.2,8.1 -78.1,29.3c-18.9,18.3 -40.4,33.1 -64.5,44.1c-10.9,5 -21.9,9.9 -32.3,15.9c-44.6,25.7 -70.8,63.6 -75.4,115.5c-3.3,37.4 0,74.6 4.5,111.7c3.9,31.9 16.2,61 30.7,89.3c19.3,37.7 47.4,66.4 85,85.9c21.6,11.2 44.6,18.4 67.8,25.2c39.2,11.4 78.6,19.9 116,17.9z" class="st0"/>
   <path id="svg_4" d="m543.2,717.8c-27.2,0.5 -61,-3.1 -94.3,-12c-22.4,-6 -45,-10.7 -66.4,-19.9c-38.4,-16.5 -64.4,-44.9 -81.8,-82.3c-11.5,-24.7 -19.6,-50.2 -21.8,-77.5c-1.9,-23.4 -4.5,-46.8 -3.9,-70.3c0.5,-16.9 2.3,-33.7 9.4,-49.3c10,-22 26.7,-37.5 48,-48.2c12.1,-6.1 24.3,-11.8 36.4,-17.7c20.8,-10.2 39.9,-23.2 56.4,-39.3c18.1,-17.6 39,-24.5 63.9,-23.8c55.5,1.6 109.6,10 162.2,28.4c23.8,8.4 42.4,22.3 56.1,43.4c14,21.6 27.7,43.2 34.1,68.5c5.2,20.5 5.4,41.6 7.9,62.4c3.8,32.2 -2,62.9 -11.4,93.5c-5.8,18.8 -11.5,37.6 -17.9,56.2c-6.6,19.2 -18.1,34.5 -33.1,47.9c-23.5,21.1 -49.9,34.4 -81.8,36.4c-18.3,1 -36.6,2.9 -62,3.6zm21.2,-367c-24.8,0.1 -44.8,1.7 -63.8,8.5c-21.3,7.6 -43.2,10.7 -65.6,12.2c-18.3,1.2 -36.6,1.2 -54.8,3.6c-25.5,3.3 -41.9,16.7 -50.1,41.1c-5.4,16.2 -5.6,32.7 -4.4,49.4c1.1,16 2,31.9 -0.1,47.9c-3.9,29.3 1.7,56.1 16.8,81.9c17.9,30.5 38.3,58.1 68.6,77.3c17.3,11 34.5,22.3 55.1,26.3c28.5,5.5 57,7.2 85.9,2.3c22.3,-3.8 42.8,-11.5 60.1,-26.3c14.7,-12.5 29.2,-25.3 43.5,-38.3c29.3,-26.7 45.4,-59.9 48,-99.5c1.3,-19.9 -2.1,-39.5 -3.2,-59.3c-1.4,-24.6 -9.1,-46.6 -24,-66.1c-29.4,-38.7 -66.1,-63.2 -112,-61z" class="st0"/>
   <path id="svg_5" d="m517.8,655.1c-18.7,-0.2 -37.4,-1.4 -55,-8.4c-32.3,-12.9 -56.8,-34.8 -73.6,-65.3c-5.8,-10.5 -12.2,-20.7 -15.4,-32.4c-2.5,-9.2 -2.5,-18.5 -1.5,-27.8c2.1,-18 1.4,-35.9 0.3,-53.9c-0.4,-7.2 -0.5,-14.3 0.5,-21.5c1.9,-14 9.2,-21.8 23,-24.7c8.4,-1.8 16.9,-1.3 25.4,-1.5c32,-1 63.4,-4.9 93.9,-15c20.5,-6.8 41.9,-7.9 63.3,-5.1c22.8,3 39.6,16.4 54.1,33.2c11.5,13.4 18.2,28.9 19.9,46.6c1.5,15.4 3.2,30.8 3.6,46.3c0.6,29.3 -9.6,54.2 -30.7,74.4c-11.6,11.2 -24.1,21.5 -35.9,32.5c-16.9,15.7 -37.4,21.8 -59.9,22.6c-4,0.1 -8.1,0 -12,0zm-8,-26.5c24.5,-0.4 44.9,-9 59,-29.8c9.6,-14.1 15.4,-29.8 18.1,-46.7c2.8,-18 -0.7,-34.7 -12.1,-49c-20.2,-25.5 -46.6,-41.6 -78.6,-47.5c-20.1,-3.7 -37.8,2.1 -50.5,19c-8.3,11.1 -15.6,22.8 -21.1,35.6c-8.3,19.2 -8.4,38.6 0.8,57.5c10.1,21 25.2,37.5 45.2,49.4c12,7.3 25,11.8 39.2,11.5z" class="st0"/>
   <path id="svg_6" d="m509.3,579.6c-16.9,-1.6 -28.3,-11.4 -36.5,-25.3c-8.4,-14.3 -4.8,-31.7 8,-42.3c6.7,-5.5 14.2,-7.3 22.4,-4.6c12,3.9 22.2,10.7 29.6,21c10.5,14.6 4.8,39.3 -10.9,48c-3.9,2.2 -8.1,3.3 -12.6,3.2z" class="st0"/>
  </g>
 </g>
</svg>